<?xml version="1.0"?>
<svg id="Layer_1" data-name="Layer 1" xmlns="http://www.w3.org/2000/svg" xmlns:xlink="http://www.w3.org/1999/xlink" viewBox="0 0 478.85 140.18">
  <defs>
    
    <linearGradient id="linear-gradient" x1="-43.07" y1="310.99" x2="350.23" y2="-24.41" gradientUnits="userSpaceOnUse">
      <stop offset="0" stop-color="#111"></stop>
      <stop offset="1" stop-color="#2e2e2e"></stop>
    </linearGradient>
  </defs>
  <rect class="cls-1" x="16.46" y="16.71" width="445.93" height="106.75" rx="30" ry="30"></rect>
  <g>
    <g>
      <path class="cls-2" d="M323.54,52.49h6.08v5.68c1.16-2,2.71-3.55,4.67-4.64,1.96-1.09,4.32-1.64,7.08-1.64s5.42.73,7.71,2.2c2.29,1.47,4.11,3.57,5.44,6.31,1.34,2.74,2,5.98,2,9.72s-.67,6.99-2,9.75c-1.34,2.76-3.15,4.86-5.44,6.31-2.29,1.45-4.86,2.17-7.71,2.17s-5.12-.55-7.08-1.64c-1.96-1.09-3.52-2.64-4.67-4.64v17.1h-6.08v-46.69ZM339.84,57.1c-2.94,0-5.42,1.09-7.45,3.27-2.03,2.18-3.04,5.43-3.04,9.75s1.01,7.57,3.04,9.75c2.03,2.18,4.51,3.27,7.45,3.27,3.21,0,5.69-1.14,7.45-3.41,1.76-2.27,2.64-5.48,2.64-9.62s-.88-7.35-2.64-9.62c-1.76-2.27-4.24-3.41-7.45-3.41Z"></path>
      <path class="cls-2" d="M386.72,82.22c-2.4,4.1-6.5,6.15-12.29,6.15-2.36,0-4.48-.45-6.35-1.34-1.87-.89-3.34-2.14-4.41-3.74s-1.6-3.43-1.6-5.48c0-3.47,1.46-6.02,4.37-7.65,2.92-1.63,7.14-2.84,12.66-3.64l4.14-.67c1.11-.22,1.93-.59,2.44-1.1.51-.51.77-1.32.77-2.44,0-1.74-.76-3.11-2.27-4.11-1.51-1-3.5-1.5-5.94-1.5-2.76,0-4.87.62-6.31,1.87-1.45,1.25-2.24,3.01-2.37,5.28l-6.21-.4c.22-2.4,1.03-4.5,2.44-6.28,1.4-1.78,3.19-3.13,5.38-4.04,2.18-.91,4.56-1.37,7.15-1.37,4.94,0,8.55,1.08,10.82,3.24,2.27,2.16,3.38,5.75,3.34,10.79l-.07,8.15c-.04,5.57.27,10.09.93,13.56h-6.14c-.27-1.69-.42-3.45-.47-5.28ZM386.86,71.4v-1.6c-.76.22-1.68.43-2.77.63-1.09.2-1.88.35-2.37.43l-1.8.33c-4.05.71-6.91,1.53-8.58,2.44-1.67.91-2.51,2.3-2.51,4.18,0,1.74.62,3.13,1.87,4.17,1.25,1.05,2.94,1.57,5.08,1.57,3.25,0,5.91-.92,7.98-2.77,2.07-1.85,3.11-4.98,3.11-9.38Z"></path>
      <path class="cls-2" d="M410.3,86.42l-13.09-33.93h6.75l9.75,26.58,9.75-26.58h6.28l-17.9,46.69h-6.35l4.81-12.76Z"></path>
    </g>
    <g>
      <g id="Vector_9" data-name="Vector 9">
        <path class="cls-2" d="M114.23,47.51c-15.56,0-27.21,11.36-27.21,26.41s11.83,26.4,27.51,26.4c5.9,0,11.49-1.57,16.15-4.56,4.35-2.79,7.72-6.68,9.79-11.29h-11.69c-2.88,4.12-8.23,6.65-14.05,6.65-8.26,0-14.68-5.01-16.38-12.77l-.14-.59h43.08c.16-1.12.23-2.71.23-3.76h.03c0-15.11-11.75-26.5-27.32-26.5ZM98.3,69.46l.17-.62c2.03-7.37,8.22-12.13,15.78-12.13s13.99,4.88,15.88,12.13l.17.62h-32Z"></path>
      </g>
      <path id="Vector_8" data-name="Vector 8" class="cls-2" d="M65.21,60.57c-2.34,2.03-3.32,5.07-3.32,8.1v31.64h-12.77v-52.74h12.45v6.81l1.16-1.31c2.41-2.73,7.59-5.5,13.69-5.5,5.25,0,8.89,1.27,12.37,4.37l-6.55,10.48c-2.19-2.15-4.74-3.77-7.83-4.09-.91-.09-1.83-.13-2.75-.09-2.34.11-4.63.76-6.44,2.34Z"></path>
      <path id="Vector_12" data-name="Vector 12" class="cls-2" d="M169.93,100.3c13.67,0,23.59-6.62,23.59-15.75,0-7.67-6.84-12.66-20.89-15.24-8.78-1.52-13.23-4.05-13.23-7.53s4.41-6.06,10.24-6.06,10.62,2.92,10.62,6.8v.26h12.11v-.26c0-8.65-9.73-15.17-22.64-15.17s-22.46,6.35-22.46,15.1c0,7.5,7.04,12.88,19.84,15.17,9.54,1.66,14.19,4.2,14.19,7.76,0,3.75-4.81,6.57-11.19,6.57s-11.86-3.28-11.86-7.45v-.26h-12.11v.26c0,9.03,10.23,15.83,23.78,15.83"></path>
      <g id="Vector_10" data-name="Vector 10">
        <path class="cls-2" d="M262.55,90.41c-3.47,0-6.28-.41-6.12-6.44v-36.47h-11.29v10.05l-.85-1.08c-4.59-5.79-11.41-8.98-19.17-8.98h-.03c-15.36-.01-26.95,11.34-26.95,26.4s11.59,26.41,26.95,26.41c7.99,0,15.19-3.54,19.72-9.67l.59-.79.26.95c1.47,5.44,6.26,9.51,13.86,9.51h3.02v-9.89ZM226.28,90.4c-9.41,0-16.51-7.1-16.51-16.51s7.11-16.5,16.51-16.5,16.41,7.1,16.41,16.5-7.04,16.51-16.41,16.51Z"></path>
      </g>
      <path class="cls-2" d="M308.43,87.72s-3.99,3.29-8.95,3.04c-3.52-.18-4.25-1.05-4.25-1.05,0,0,11.6-12.11,12.35-32.43.6-16.26-8.67-22.6-17.51-23.04-8.95-.45-18.63,5.85-20.03,20.79-1.85,19.82,9.89,34.32,9.89,34.32,0,0-2,1.45-8.54,1.05v9.91s10.16.44,15.87-3.58c2.51,1.92,7.11,4.76,14.53,4.02,6.36-.63,11.7-4.27,11.7-4.27l-5.05-8.75ZM287.87,83.06c-2.75-3.75-6.45-12.72-6.45-23.41,0-6.5,1.78-13.47,8.09-13.04,5.98.41,6.89,7.26,6.3,13.62-1.01,10.81-4.62,19.27-7.93,22.82Z"></path>
    </g>
  </g>
</svg>